HIERARCHY
ROOT Hips
{
     OFFSET 61.26400 94.63060 -2.61621
     CHANNELS 6 Xposition Yposition Zposition Zrotation Xrotation Yrotation
     JOINT Spine
     {
          OFFSET -0.00000 11.89050 -0.00000
          CHANNELS 3 Zrotation Xrotation Yrotation
          JOINT Spine1
          {
               OFFSET -0.00000 25.65740 0.12766
               CHANNELS 3 Zrotation Xrotation Yrotation
               JOINT HEad
               {
                    OFFSET -0.00000 8.73416 0.01134
                    CHANNELS 3 Zrotation Xrotation Yrotation
                    End Site
                    {
                         OFFSET -0.29000 12.77420 2.51395
                    }
               }
               JOINT LeftShoulder1
               {
                    OFFSET 8.99000 -0.36225 -0.22000
                    CHANNELS 3 Zrotation Xrotation Yrotation
                    JOINT LeftArm
                    {
                         OFFSET 10.28270 -0.00338 0.32212
                         CHANNELS 3 Zrotation Xrotation Yrotation
                         JOINT LeftForeArm
                         {
                              OFFSET 32.76690 0.09914 -1.42434
                              CHANNELS 3 Zrotation Xrotation Yrotation
                              JOINT LeftHand
                              {
                                   OFFSET 27.56430 0.08536 1.02216
                                   CHANNELS 3 Zrotation Xrotation Yrotation
                                   End Site
                                   {
                                        OFFSET 16.74430 -0.60000 1.50291
                                   }
                              }
                         }
                    }
               }
               JOINT RightShoulder
               {
                    OFFSET -8.99000 -0.36225 -0.22000
                    CHANNELS 3 Zrotation Xrotation Yrotation
                    JOINT RightArm
                    {
                         OFFSET -10.28270 -0.00338 0.32212
                         CHANNELS 3 Zrotation Xrotation Yrotation
                         JOINT RightForeArm
                         {
                              OFFSET -32.89710 0.09914 -1.42434
                              CHANNELS 3 Zrotation Xrotation Yrotation
                              JOINT RightHand
                              {
                                   OFFSET -27.49210 0.08536 1.02216
                                   CHANNELS 3 Zrotation Xrotation Yrotation
                                   End Site
                                   {
                                        OFFSET -16.63120 -0.60000 1.50291
                                   }
                              }
                         }
                    }
               }
          }
     }
     JOINT LeftUpLeg
     {
          OFFSET 8.94580 -8.66707 0.10165
          CHANNELS 3 Zrotation Xrotation Yrotation
          JOINT LeftLeg
          {
               OFFSET 0.00000 -44.42270 1.37270
               CHANNELS 3 Zrotation Xrotation Yrotation
               JOINT LeftFoot
               {
                    OFFSET -0.25355 -42.09240 -1.46059
                    CHANNELS 3 Zrotation Xrotation Yrotation
                    JOINT LeftToes
                    {
                         OFFSET -0.04000 -4.41509 8.49910
                         CHANNELS 3 Zrotation Xrotation Yrotation
                         End Site
                         {
                              OFFSET 0.08000 -0.04745 9.77979
                         }
                    }
               }
          }
     }
     JOINT RightUpLeg
     {
          OFFSET -8.94580 -8.66707 0.10165
          CHANNELS 3 Zrotation Xrotation Yrotation
          JOINT RightLeg
          {
               OFFSET 0.00000 -44.42270 1.37270
               CHANNELS 3 Zrotation Xrotation Yrotation
               JOINT RightFoot
               {
                    OFFSET 0.25355 -42.09240 -1.46059
                    CHANNELS 3 Zrotation Xrotation Yrotation
                    JOINT RightToes
                    {
                         OFFSET 0.04000 -4.41509 8.49910
                         CHANNELS 3 Zrotation Xrotation Yrotation
                         End Site
                         {
                              OFFSET -0.08000 -0.13745 9.77979
                         }
                    }
               }
          }
     }
}
MOTION
Frames: 8
Frame Time: 0.01667
30.15990 95.90210 53.48360 57.83230 -22.26100 150.04100 4.66718 19.98820 -12.47220 12.93570 35.31350 -31.44360 30.39110 4.55552 -46.94400 -0.00000 0.00000 -0.00000 -43.09310 18.27310 -88.90490 -29.88270 -19.00390 -85.90830 7.37860 8.74026 -15.63660 49.11940 -0.58515 -3.21285 42.68770 -17.09290 -13.16670 -5.62829 18.24600 14.84220 22.01610 10.04220 -3.60627 53.55820 -1.88341 -15.40440 -26.59100 22.54910 96.29270 -20.18480 -12.88870 -0.88225 7.89096 -14.63480 -65.97830 -21.80540 -56.62060 -39.19050 36.04570 26.03240 -6.54082 -2.85813 48.26680 1.63310 0.04620 0.00053 0.66264 
31.17270 96.13290 54.46780 56.20810 -19.70970 152.32001 4.53630 19.13310 -12.16970 12.21380 34.11180 -30.08880 29.86850 2.63637 -44.78330 -0.00000 0.00000 -0.00000 -45.91580 18.42280 -85.97400 -30.38920 -13.96860 -85.94440 7.40630 8.79183 -14.68660 49.09170 -0.24342 -2.54414 41.87550 -13.18120 -11.78030 -7.16301 22.67110 17.82880 21.63500 10.26570 -2.44535 51.77610 -3.70952 -21.66870 -28.61410 21.00830 99.05730 -19.43740 -13.66210 -0.97741 8.17387 -13.71620 -65.18750 -14.60860 -56.04240 -34.09160 34.33390 26.17420 -0.65920 2.45259 51.48190 -1.07697 0.04620 0.00053 0.66264 
32.37980 97.00950 55.06200 54.20490 -15.63310 154.06700 1.92564 18.37280 -11.23330 10.73640 33.82100 -27.89320 29.32840 1.22053 -41.83650 -0.00000 0.00000 -0.00000 -46.54720 18.02040 -84.12040 -29.39070 -11.29930 -85.88280 6.33669 8.95454 -14.98060 48.83600 -0.05542 -2.17786 40.49050 -9.90979 -9.39141 -6.92757 23.46660 19.39640 20.37630 10.52050 -0.94067 50.15050 -1.53721 -23.66110 -28.90890 16.52220 96.59140 -14.65320 -13.83980 -0.73943 7.12762 -16.37200 -64.43190 -6.50174 -51.22030 -26.53060 32.59450 22.97830 2.19727 2.54856 49.61560 -1.09453 0.04620 0.00053 0.66264 
33.95260 97.52060 55.96510 51.75320 -10.79200 156.20599 -0.50468 17.72800 -10.31000 8.77388 33.55000 -25.76540 28.50170 1.70813 -37.97220 -0.00000 0.00000 -0.00000 -47.72750 16.60330 -81.48970 -27.01880 -7.07131 -84.85570 6.70058 8.86993 -15.42060 47.95590 -0.18994 -2.45544 38.98450 -7.68008 -7.59916 -6.48788 22.41310 21.20950 19.48590 10.73250 0.41962 47.96910 0.01841 -25.22890 -29.26440 14.39330 94.68580 -12.45650 -13.63710 -0.59587 6.19108 -19.08880 -67.05410 -2.34068 -45.99670 -19.80770 31.61200 19.83670 2.57457 1.65671 42.36280 -0.57299 0.04620 0.00053 0.66264 
35.35210 97.74780 56.67420 48.87060 -4.80378 159.41200 -1.22757 17.55390 -10.15570 7.18363 33.86220 -24.81890 26.99950 1.51264 -33.60120 -0.00000 0.00000 -0.00000 -45.64760 15.61900 -80.59300 -23.76760 -6.90086 -84.49220 8.04114 8.67853 -14.80830 46.02020 -0.02720 -2.14325 37.99070 -7.63383 -6.28951 -6.78881 21.41520 23.22140 18.28310 10.64060 0.16769 44.18850 0.97535 -28.26840 -29.24300 14.36960 93.38220 -12.46580 -12.38050 -0.46370 5.00172 -21.99020 -68.16290 -2.58558 -39.79450 -15.07890 31.82890 16.87450 2.38152 -0.95314 34.95660 0.46550 0.04620 0.00053 0.66264 
37.13750 97.95910 56.95640 46.11800 -1.81210 164.42101 -2.16044 16.29040 -10.01190 6.86429 32.21760 -23.59220 27.31050 2.97825 -30.12230 -0.00000 0.00000 -0.00000 -41.35530 17.07300 -80.09700 -23.78670 -11.25040 -82.53680 7.72297 8.64465 -16.20650 45.13210 0.23441 -1.59073 35.71760 -9.14091 -6.45497 -7.87772 20.90590 25.70450 17.74350 10.54570 -0.29138 43.64670 0.42745 -23.53660 -28.72210 14.27020 87.82260 -8.31032 -10.47480 -0.15922 1.11507 -30.10240 -71.67650 -3.44461 -35.06290 -10.14040 32.42000 10.78330 -0.11935 -2.41807 31.44480 0.91230 0.04620 0.00053 0.66264 
38.79370 97.84010 57.02060 42.40030 1.98027 169.59700 -3.47189 15.27840 -10.08510 6.26651 31.16040 -22.76050 27.35790 3.43768 -26.95020 -0.00000 0.00000 -0.00000 -38.83550 16.64170 -79.04210 -24.73350 -13.11620 -81.93270 7.17780 8.88900 -13.64960 41.95230 0.20637 -1.63967 36.34570 -9.53330 -6.00217 -9.96635 18.95570 27.84260 17.69560 10.54790 -0.26735 40.75820 -0.77286 -24.23830 -29.15610 15.43650 85.47720 -7.67845 -9.80120 -0.10168 -0.94678 -34.23310 -71.54090 -6.23602 -30.52440 -6.11200 32.59110 6.64347 -2.40234 -1.45378 29.65780 0.54687 0.04620 0.00053 0.66264 
40.68340 97.42840 56.78220 38.50630 5.77234 175.21201 -5.34410 14.34640 -9.93795 5.97996 30.18800 -21.58810 26.02330 3.73583 -23.02130 -0.00000 0.00000 -0.00000 -33.54360 17.69640 -80.06170 -26.65600 -17.77790 -81.55140 6.28855 9.03643 -13.48230 38.82530 0.07249 -1.96034 35.95220 -10.55380 -5.91975 -10.57450 16.51180 29.48260 16.82050 10.60610 0.32092 37.87150 -1.65769 -24.31560 -29.31970 17.50910 82.25350 -6.54338 -9.30391 -0.05436 -3.03557 -37.28050 -74.34870 -9.60869 -26.86460 -1.74627 33.87720 4.00289 -6.08306 -4.71164 31.66720 1.70871 0.04620 0.00053 0.66264 
